<?xml version="1.0" standalone="no"?><!DOCTYPE svg PUBLIC "-//W3C//DTD SVG 1.1//EN" "http://www.w3.org/Graphics/SVG/1.1/DTD/svg11.dtd"><svg class="s13edtwi-12 gdBGJH" viewBox="0 0 20 20" version="1.1" xmlns="http://www.w3.org/2000/svg" xmlns:xlink="http://www.w3.org/1999/xlink" style="cursor:pointer;height:20px;text-align:center;width:20px;perspective-origin:10px 10px;transform-origin:10px 10px;fill:rgb(135, 138, 140);"><g fill-rule="evenodd" style="cursor:pointer;height:auto;overflow-x:visible;overflow-y:visible;text-align:center;width:auto;perspective-origin:0px 0px;transform-origin:0px 0px;fill:rgb(135, 138, 140);fill-rule:evenodd;"><path d="M3.169 7a1 1 0 0 1-1-1c0-1.654 1.346-3 3-3h10c1.654 0 3 1.346 3 3a1 1 0 1 1-2 0c0-.551-.448-1-1-1h-10c-.552 0-1 .449-1 1a1 1 0 0 1-1 1zm14 6a1 1 0 0 1 1 1c0 1.654-1.346 3-3 3h-10c-1.654 0-3-1.346-3-3a1 1 0 1 1 2 0c0 .551.448 1 1 1h10c.552 0 1-.449 1-1a1 1 0 0 1 1-1zM18 9a1 1 0 1 1 0 2h-3.104c-.552 0-1 .449-1 1a1 1 0 0 1-2 0c0-.551-.449-1-1-1H2a1 1 0 1 1 0-2h16z" style="cursor:pointer;height:auto;overflow-x:visible;overflow-y:visible;text-align:center;width:auto;perspective-origin:0px 0px;transform-origin:0px 0px;fill:rgb(135, 138, 140);fill-rule:evenodd;d:path('M 3.169 7 a 1 1 0 0 1 -1 -1 c 0 -1.654 1.346 -3 3 -3 h 10 c 1.654 0 3 1.346 3 3 a 1 1 0 1 1 -2 0 c 0 -0.551 -0.448 -1 -1 -1 h -10 c -0.552 0 -1 0.449 -1 1 a 1 1 0 0 1 -1 1 Z m 14 6 a 1 1 0 0 1 1 1 c 0 1.654 -1.346 3 -3 3 h -10 c -1.654 0 -3 -1.346 -3 -3 a 1 1 0 1 1 2 0 c 0 0.551 0.448 1 1 1 h 10 c 0.552 0 1 -0.449 1 -1 a 1 1 0 0 1 1 -1 Z M 18 9 a 1 1 0 1 1 0 2 h -3.104 c -0.552 0 -1 0.449 -1 1 a 1 1 0 0 1 -2 0 c 0 -0.551 -0.449 -1 -1 -1 H 2 a 1 1 0 1 1 0 -2 h 16 Z');"/></g></svg>