<svg width="1600" height="173" viewBox="0 0 1600 173" xmlns="http://www.w3.org/2000/svg">
    <path d="M1665.7314 145.8228C1550.349 227.77 1408.43 95.0342 1158.618 51.8118 854.8594-.7446 794.0654 148.6853 426.121 93.9548 334.8894 80.3835 279.017 62.33 183.4 75.5847 20.5096 98.1645-64.3615 184.8027-137.338 140.4197c-40.128-24.406-64.669-81.1357-48.761-103.7362 34.1576-48.529 217.9732 112.638 473.5226 108.0586C520.7432 140.5614 538.827 3.1432 763.113 1.0242c226.7598-2.1416 245.4396 137.9714 501.6955 148.0403 232.6934 9.143 426.895-98.1528 443.1823-61.5933 6.4538 14.4852-19.2725 42.026-42.2594 58.3516z"
          stroke="#010E28" fill="none" fill-rule="evenodd" stroke-opacity=".06"/>
</svg>
